# xmcd CD database file
#
# Track frame offsets:
#	150
#	29959
#	51006
#	90182
#	112542
#	130074
#	154506
#	182032
#	206737
#	229930
#	268864
#
# Disc length: 3753 seconds
#
# Revision: 0
# Processed by: cddbd v1.5.2PL0 Copyright (c) Steve Scherf et al.
# Submitted via: CDex 1.51
#
DISCID=8c0ea70b
DTITLE=Bob Long Trio - Straight Roads
DYEAR=2003
DGENRE=Jazz
TTITLE0=Straight
TTITLE1=The Wheel
TTITLE2=Midnight Voyage
TTITLE3=One Line Written
TTITLE4=Skatin
TTITLE5=Arima
TTITLE6=Night Dreamer
TTITLE7=Upper Manhattan Medical Group
TTITLE8=Dark Light
TTITLE9=Turn Out the Stars
TTITLE10=Prince of Darkness
EXTD=YEAR: 2003
EXTT0=
EXTT1=
EXTT2=
EXTT3=
EXTT4=
EXTT5=
EXTT6=
EXTT7=
EXTT8=
EXTT9=
EXTT10=
PLAYORDER=
